HIERARCHY
ROOT Hips
{
	OFFSET 0.000000 0.000000 0.000000
	CHANNELS 6 Xposition Yposition Zposition Xrotation Yrotation Zrotation
	JOINT LeftUpLeg_virtual
	{
		OFFSET 0.000000 0.000000 0.000000
		CHANNELS 3 Xrotation Yrotation Zrotation
		JOINT LeftUpLeg
		{
			OFFSET 10.205400 -3.823500 0.155100
			CHANNELS 3 Xrotation Yrotation Zrotation
			JOINT LeftLeg
			{
				OFFSET 0.708757 -12.982077 0.567790
				CHANNELS 3 Xrotation Yrotation Zrotation
				JOINT LeftFoot
				{
					OFFSET -0.708756 -10.717838 -2.184338
					CHANNELS 3 Xrotation Yrotation Zrotation
					JOINT LeftToeBase
					{
						OFFSET 0.108149 -7.191104 7.560241
						CHANNELS 3 Xrotation Yrotation Zrotation
						JOINT LeftToe_End
						{
							OFFSET 0.070230 0.081724 4.490308
							CHANNELS 3 Xrotation Yrotation Zrotation
							End Site
							{
								OFFSET 0 0 0
							}
						}
					}
				}
			}
		}
	}
	JOINT RightUpLeg_virtual
	{
		OFFSET 0.000000 0.000000 0.000000
		CHANNELS 3 Xrotation Yrotation Zrotation
		JOINT RightUpLeg
		{
			OFFSET -10.205400 -3.823500 0.005500
			CHANNELS 3 Xrotation Yrotation Zrotation
			JOINT RightLeg
			{
				OFFSET -0.708756 -12.982134 0.610632
				CHANNELS 3 Xrotation Yrotation Zrotation
				JOINT RightFoot
				{
					OFFSET 0.708754 -10.717769 -1.945823
					CHANNELS 3 Xrotation Yrotation Zrotation
					JOINT RightToeBase
					{
						OFFSET -0.108140 -7.191069 7.372968
						CHANNELS 3 Xrotation Yrotation Zrotation
						JOINT RightToe_End
						{
							OFFSET -0.070227 0.081735 4.479403
							CHANNELS 3 Xrotation Yrotation Zrotation
							End Site
							{
								OFFSET 0 0 0
							}
						}
					}
				}
			}
		}
	}
	JOINT Spine_virtual
	{
		OFFSET 0.000000 0.000000 0.000000
		CHANNELS 3 Xrotation Yrotation Zrotation
		JOINT Spine
		{
			OFFSET 0.000000 6.876099 0.125700
			CHANNELS 3 Xrotation Yrotation Zrotation
			JOINT Spine1
			{
				OFFSET 0.000000 5.730043 0.104720
				CHANNELS 3 Xrotation Yrotation Zrotation
				JOINT Spine1_split
				{
					OFFSET 0.000000 5.730043 0.104720
					CHANNELS 3 Xrotation Yrotation Zrotation
					JOINT Spine2
					{
						OFFSET 0.000000 5.730043 0.104720
						CHANNELS 3 Xrotation Yrotation Zrotation
						JOINT Neck_virtual
						{
							OFFSET 0.000000 0.000000 0.000000
							CHANNELS 3 Xrotation Yrotation Zrotation
							JOINT Neck
							{
								OFFSET 0.000000 10.314075 0.188496
								CHANNELS 3 Xrotation Yrotation Zrotation
								JOINT Head
								{
									OFFSET 0.000000 7.643700 -2.377400
									CHANNELS 3 Xrotation Yrotation Zrotation
									JOINT HeadTop_End
									{
										OFFSET 0.000000 43.788605 -13.619600
										CHANNELS 3 Xrotation Yrotation Zrotation
										End Site
										{
											OFFSET 0 0 0
										}
									}
								}
							}
						}
						JOINT LeftShoulder_virtual
						{
							OFFSET 0.000000 0.000000 0.000000
							CHANNELS 3 Xrotation Yrotation Zrotation
							JOINT LeftShoulder
							{
								OFFSET 2.196100 4.412489 0.087492
								CHANNELS 3 Xrotation Yrotation Zrotation
								JOINT LeftShoulder_split
								{
									OFFSET 2.196100 4.412489 0.087492
									CHANNELS 3 Xrotation Yrotation Zrotation
									JOINT LeftArm
									{
										OFFSET 8.771219 -2.981674 -0.026999
										CHANNELS 3 Xrotation Yrotation Zrotation
										JOINT LeftForeArm
										{
											OFFSET 8.512804 0.000000 -0.000000
											CHANNELS 3 Xrotation Yrotation Zrotation
											JOINT LeftHand
											{
												OFFSET 18.484802 0.000000 -0.000000
												CHANNELS 3 Xrotation Yrotation Zrotation
												End Site
												{
													OFFSET 0 0 0
												}
											}
										}
									}
								}
							}
						}
						JOINT RightShoulder_virtual
						{
							OFFSET 0.000000 0.000000 0.000000
							CHANNELS 3 Xrotation Yrotation Zrotation
							JOINT RightShoulder
							{
								OFFSET -2.196100 4.412496 0.070690
								CHANNELS 3 Xrotation Yrotation Zrotation
								JOINT RightShoulder_split
								{
									OFFSET -2.196100 4.412496 0.070690
									CHANNELS 3 Xrotation Yrotation Zrotation
									JOINT RightArm
									{
										OFFSET -8.771282 -2.981682 -0.094208
										CHANNELS 3 Xrotation Yrotation Zrotation
										JOINT RightForeArm
										{
											OFFSET -8.494598 0.000000 0.000000
											CHANNELS 3 Xrotation Yrotation Zrotation
											JOINT RightHand
											{
												OFFSET -18.483803 0.000000 0.000001
												CHANNELS 3 Xrotation Yrotation Zrotation
												End Site
												{
													OFFSET 0 0 0
												}
											}
										}
									}
								}
							}
						}
					}
				}
			}
		}
	}
}
MOTION
Frames: 11
Frame Time: 0.03333333
-101.302902 33.658428 -4.378908 0.000000 0.000000 0.000000 2.854515 0.614185 0.264586 -6.352492 18.331394 15.544740 18.032090 -9.084089 -0.612766 -16.275733 -13.573383 -5.998725 -2.583246 -0.574466 2.936700 0.000000 0.000000 0.000000 1.738349 2.969729 -0.239857 4.960991 -5.879956 -19.978213 14.467871 1.862642 12.262523 -9.878386 -3.570538 6.776955 -8.727836 -0.476891 -1.230444 0.000000 0.000000 0.000000 3.895480 0.919021 -0.644565 0.790500 1.408686 1.263793 2.230532 0.893377 0.417390 0.807050 -1.989798 0.235260 0.000000 0.000000 0.000000 1.808684 0.535542 0.491291 3.614435 -0.517693 -1.464356 -7.277513 -6.284601 1.585870 0.000000 0.000000 0.000000 0.706293 0.433209 0.161093 0.812300 -0.918641 -10.250813 -2.285370 -1.016893 0.198794 8.188125 -17.147349 -62.787170 -0.320586 -21.985293 0.325010 0.000000 0.000000 0.000000 1.390214 0.566318 0.882401 0.702562 5.275121 13.547834 1.474358 2.895297 -3.076365 12.319873 8.548931 63.689786 1.028587 31.396751 0.314780 0.000000 0.000000 0.000000 
-101.243607 33.639488 -4.357964 0.000000 0.000000 0.000000 2.722095 0.812945 0.173709 -6.664986 18.413422 15.442230 18.197902 -9.210314 -0.201536 -15.694480 -13.712885 -5.508250 -2.649972 -0.581368 2.772307 0.000000 0.000000 0.000000 1.644062 3.008677 -0.333633 4.910557 -5.797896 -19.779565 14.667006 2.017070 12.204036 -10.201000 -3.597769 6.746290 -8.454266 -0.377423 -1.446574 0.000000 0.000000 0.000000 3.779085 0.946122 -0.658485 0.813735 1.438463 1.385706 2.295999 0.965457 0.438718 0.827619 -1.846449 0.246715 0.000000 0.000000 0.000000 1.688374 0.562972 0.541223 3.435687 -0.550111 -1.616759 -7.733843 -6.665605 1.684919 0.000000 0.000000 0.000000 0.700282 0.493428 0.172649 0.864311 -0.132684 -9.847143 -2.239516 -1.189474 0.375144 8.090869 -17.352611 -62.314152 -0.639672 -25.080747 0.214414 0.000000 0.000000 0.000000 1.442588 0.632994 0.892028 0.738676 5.128204 13.272044 1.347650 2.898230 -2.917722 12.851634 9.905910 62.002511 0.880791 34.418771 0.384197 0.000000 0.000000 0.000000 
-101.169556 33.643574 -4.334209 0.000000 0.000000 0.000000 2.629562 0.960501 0.142287 -7.049363 18.323726 15.251420 18.470208 -9.301726 0.224763 -14.657051 -13.978361 -5.170596 -2.849278 -0.599979 2.672304 0.000000 0.000000 0.000000 1.561798 3.020023 -0.349166 4.814676 -5.704044 -19.528520 14.819946 2.145428 11.994317 -10.557851 -3.609265 6.843540 -7.999518 -0.265250 -1.590411 0.000000 0.000000 0.000000 3.735893 0.947816 -0.608250 0.752524 1.503819 1.483343 2.354031 1.089428 0.465560 0.902265 -1.735451 0.264394 0.000000 0.000000 0.000000 1.554844 0.649614 0.596228 3.430284 -0.595113 -1.751275 -8.172485 -7.043274 1.797925 0.000000 0.000000 0.000000 0.715746 0.610955 0.222186 0.874064 0.823266 -9.112894 -2.078827 -1.274618 0.476901 7.769790 -16.869341 -62.001705 -1.112836 -31.106498 -0.053649 0.000000 0.000000 0.000000 1.472013 0.749495 0.900177 0.797467 4.795157 12.718036 1.373023 2.930006 -2.612896 13.363441 11.004173 59.993957 0.745940 40.034624 0.365080 0.000000 0.000000 0.000000 
-101.098213 33.672665 -4.341848 0.000000 0.000000 0.000000 2.623360 1.134009 0.188749 -7.561587 18.035961 14.967011 18.908655 -9.283048 0.651218 -13.398517 -14.299062 -4.834681 -3.031467 -0.648899 2.741567 0.000000 0.000000 0.000000 1.534014 2.975860 -0.297816 4.688293 -5.576353 -19.209726 14.821323 2.241441 11.614375 -10.754739 -3.606240 7.193988 -7.463049 -0.149063 -1.662098 0.000000 0.000000 0.000000 3.837084 0.913802 -0.494509 0.584462 1.581156 1.554807 2.388016 1.252907 0.475117 1.015847 -1.602020 0.250773 0.000000 0.000000 0.000000 1.441457 0.776282 0.625007 3.629242 -0.624076 -1.847119 -8.565060 -7.314888 1.955941 0.000000 0.000000 0.000000 0.745598 0.764224 0.284802 0.825576 1.824319 -8.185254 -1.858698 -1.232976 0.627736 6.887348 -15.681650 -61.985428 -1.639060 -39.633706 -0.499124 0.000000 0.000000 0.000000 1.471852 0.902572 0.884387 0.855861 4.290642 11.857509 1.464802 2.955676 -2.200074 13.476711 11.537938 57.985711 0.636378 48.055691 0.244787 0.000000 0.000000 0.000000 
-101.033798 33.710205 -4.403345 0.000000 0.000000 0.000000 2.760906 1.347309 0.274641 -8.306112 17.595669 14.573708 19.606900 -9.182961 1.005001 -12.283568 -14.558625 -4.386450 -3.075930 -0.746776 2.993138 0.000000 0.000000 0.000000 1.649732 2.906755 -0.192204 4.378034 -5.451434 -18.907451 14.667473 2.341754 11.093874 -10.768049 -3.588408 7.900194 -6.904118 -0.016592 -1.670535 0.000000 0.000000 0.000000 4.115125 0.877549 -0.316992 0.322748 1.639674 1.586268 2.403513 1.433994 0.442032 1.203146 -1.582290 0.322092 0.000000 0.000000 0.000000 1.383214 0.921187 0.611886 3.931356 -0.615437 -1.882720 -8.962318 -7.369251 2.180168 0.000000 0.000000 0.000000 0.773878 0.928236 0.315742 0.725183 2.729133 -7.216811 -1.740197 -1.078667 0.763872 5.073006 -14.017196 -62.263759 -2.154603 -49.176034 -1.109004 0.000000 0.000000 0.000000 1.455133 1.064964 0.828383 0.890467 3.667163 10.781668 1.572844 2.897689 -1.781552 12.747798 11.373842 56.259008 0.516483 57.538634 0.055028 0.000000 0.000000 0.000000 
-100.987900 33.715706 -4.527157 0.000000 0.000000 0.000000 3.126942 1.697224 0.375074 -9.655395 17.064628 14.251264 20.709239 -9.131504 1.206339 -11.584637 -14.741343 -3.968948 -3.083528 -0.882277 3.429552 0.000000 0.000000 0.000000 1.968746 2.947309 -0.076485 3.621321 -5.336361 -18.684845 14.547144 2.465369 10.504689 -10.782258 -3.576126 8.844422 -6.318009 0.136554 -1.648443 0.000000 0.000000 0.000000 4.570187 0.849304 -0.094196 0.033927 1.668868 1.566427 2.410381 1.616502 0.363880 1.388127 -1.718306 0.319423 0.000000 0.000000 0.000000 1.381450 1.062562 0.544776 4.193931 -0.573457 -1.867124 -9.446462 -7.171317 2.463271 0.000000 0.000000 0.000000 0.830086 1.082465 0.292474 0.613209 3.345678 -6.394269 -1.723854 -0.893028 0.870450 2.156527 -12.387800 -62.636974 -2.594378 -57.744899 -1.818612 0.000000 0.000000 0.000000 1.435761 1.213669 0.728959 0.881038 3.085400 9.604788 1.653834 2.941559 -1.478653 10.940856 10.668384 54.886820 0.313987 67.113207 -0.117698 0.000000 0.000000 0.000000 
-100.956543 33.635208 -4.772673 0.000000 0.000000 0.000000 3.732060 2.182819 0.482320 -12.068371 16.383909 14.156504 22.472497 -9.310567 1.183397 -11.111602 -14.799172 -3.890826 -3.180616 -1.023402 3.955809 0.000000 0.000000 0.000000 2.572665 3.170266 0.001005 2.001557 -5.277273 -18.598771 15.065789 2.640847 9.958349 -11.129793 -3.614182 9.636168 -5.483279 0.325539 -1.593808 0.000000 0.000000 0.000000 5.215573 0.843297 0.146687 -0.167040 1.667071 1.499205 2.439654 1.788807 0.247262 1.430144 -1.907998 0.372691 0.000000 0.000000 0.000000 1.451798 1.190974 0.436621 4.219359 -0.535898 -1.816417 -10.175355 -6.811216 2.778283 0.000000 0.000000 0.000000 0.930983 1.213319 0.214077 0.502921 3.548072 -5.814572 -1.774949 -0.836908 0.966595 -1.932746 -11.203721 -62.909710 -2.872142 -63.729988 -2.441455 0.000000 0.000000 0.000000 1.457057 1.343003 0.598085 0.833610 2.708514 8.547779 1.699503 3.109916 -1.337900 7.894985 9.704876 53.739443 -0.051538 75.502755 -0.121706 0.000000 0.000000 0.000000 
-100.928055 33.423138 -5.108202 0.000000 0.000000 0.000000 4.619125 2.776537 0.580355 -15.777699 15.477697 14.340995 25.223390 -9.725126 0.863502 -10.757220 -14.654582 -4.053503 -3.433322 -1.137579 4.426309 0.000000 0.000000 0.000000 3.528447 3.585478 0.070658 -0.865262 -5.231218 -18.737053 16.781162 2.856640 9.549543 -12.032166 -3.729139 9.994293 -4.387677 0.543607 -1.526563 0.000000 0.000000 0.000000 6.042407 0.871639 0.409141 -0.197208 1.639749 1.375621 2.519745 1.952956 0.111692 1.288076 -2.147390 0.388798 0.000000 0.000000 0.000000 1.597671 1.304389 0.311667 3.875893 -0.513863 -1.748769 -11.284092 -6.394157 3.068065 0.000000 0.000000 0.000000 1.091136 1.325662 0.097470 0.421091 3.289434 -5.472821 -2.010049 -0.967275 0.970235 -7.144757 -10.636263 -62.862875 -2.889755 -66.756466 -2.774235 0.000000 0.000000 0.000000 1.535308 1.441417 0.458553 0.748159 2.671119 7.807733 1.733404 3.384757 -1.328768 3.660003 8.856220 52.578503 -0.974661 82.003524 0.478478 0.000000 0.000000 0.000000 
-100.917274 33.059982 -5.502497 0.000000 0.000000 0.000000 5.810558 3.264728 0.698348 -20.814447 14.293773 14.767934 29.182827 -10.214534 0.325960 -10.667066 -14.179402 -4.114809 -3.634519 -1.183126 4.671853 0.000000 0.000000 0.000000 4.801687 4.111468 0.142604 -5.271810 -5.028476 -19.151072 20.359252 3.178540 9.334242 -13.338267 -3.908703 9.953623 -3.708381 0.783475 -1.474555 0.000000 0.000000 0.000000 7.088330 0.966697 0.650234 0.002226 1.600832 1.199494 2.665799 2.108509 -0.030375 1.012823 -2.221666 0.297887 0.000000 0.000000 0.000000 1.819420 1.405325 0.189378 3.126690 -0.559549 -1.688766 -12.858373 -6.025975 3.286700 0.000000 0.000000 0.000000 1.314403 1.429629 -0.028062 0.368523 2.506923 -5.299254 -2.328911 -1.311683 0.970134 -13.147623 -10.578770 -62.372051 -2.660299 -67.508012 -2.774957 0.000000 0.000000 0.000000 1.701332 1.530752 0.330530 0.640807 3.078216 7.513331 1.639201 3.613510 -1.309513 -1.644998 8.466832 51.217304 -3.764643 86.473296 3.083564 0.000000 0.000000 0.000000 
-100.927528 32.529930 -5.957523 0.000000 0.000000 0.000000 7.366929 3.649541 0.828131 -26.907424 12.870142 15.271222 34.277192 -10.613369 -0.363272 -11.278562 -13.306605 -3.715110 -3.447811 -1.133634 4.593749 0.000000 0.000000 0.000000 6.397376 4.598029 0.253357 -11.255101 -4.482239 -19.786805 26.133938 3.692019 9.232707 -14.819555 -4.052109 9.643837 -3.841108 1.016202 -1.456658 0.000000 0.000000 0.000000 8.471061 1.090629 0.852870 0.425648 1.550490 1.008135 2.890940 2.247314 -0.173117 0.786781 -2.165720 0.304517 0.000000 0.000000 0.000000 2.134658 1.491512 0.087541 2.040085 -0.669467 -1.627549 -14.911807 -5.772489 3.400688 0.000000 0.000000 0.000000 1.587403 1.523301 -0.148567 0.336554 1.292843 -5.176603 -2.684841 -1.714035 0.919404 -19.567078 -10.616581 -61.434580 -2.346877 -67.010508 -2.554137 0.000000 0.000000 0.000000 1.969245 1.622857 0.225593 0.514052 3.924743 7.706707 1.477656 3.685951 -1.277898 -7.753776 8.626939 49.590448 -17.171034 89.065598 16.464156 0.000000 0.000000 0.000000 
-100.946976 31.856705 -6.443970 0.000000 0.000000 0.000000 9.331210 3.941353 0.969121 -33.634922 11.461758 15.845549 40.019547 -10.773467 -1.217314 -12.998805 -12.232094 -2.878855 -3.047056 -1.016778 4.291722 0.000000 0.000000 0.000000 8.253812 4.832073 0.451845 -18.619128 -3.301590 -20.540821 33.882366 4.429220 9.132680 -16.468223 -4.129675 9.137417 -4.428749 1.232077 -1.492607 0.000000 0.000000 0.000000 10.230977 1.274656 1.011189 1.019104 1.493836 0.831129 3.178588 2.355079 -0.314625 0.757836 -2.203658 0.246756 0.000000 0.000000 0.000000 2.544664 1.558820 0.004148 0.777398 -0.856381 -1.544371 -17.319874 -5.622444 3.404440 0.000000 0.000000 0.000000 1.888064 1.601315 -0.268256 0.344311 -0.256625 -5.023357 -2.980131 -2.038734 0.854137 -25.678566 -10.451002 -60.109469 -2.019656 -66.366018 -2.243844 0.000000 0.000000 0.000000 2.308388 1.709747 0.134520 0.362432 5.116264 8.196319 1.281994 3.658126 -1.278959 -14.264452 9.344133 47.820972 -139.120039 89.593613 138.514952 0.000000 0.000000 0.000000 
